<?xml version="1.0" encoding="UTF-8" standalone="no"?>
<!DOCTYPE svg PUBLIC "-//W3C//DTD SVG 1.1//EN"
 "http://www.w3.org/Graphics/SVG/1.1/DTD/svg11.dtd">
<!-- Generated by graphviz version 2.40.1 (20161225.0304)
 -->
<!-- Title: dependencies Pages: 1 -->
<svg width="509pt" height="211pt"
 viewBox="0.00 0.00 509.00 211.00" xmlns="http://www.w3.org/2000/svg" xmlns:xlink="http://www.w3.org/1999/xlink">
<g id="graph0" class="graph" transform="scale(1 1) rotate(0) translate(4 207)">
<title>dependencies</title>
<polygon fill="#ffffff" stroke="transparent" points="-4,4 -4,-207 505,-207 505,4 -4,4"/>
<text text-anchor="start" x="229.5091" y="-42.4" font-family="sans-serif" font-weight="bold" font-size="14.00" fill="#000000">Legend</text>
<polygon fill="#ffffb3" stroke="transparent" points="16.5,-10 16.5,-30 36.5,-30 36.5,-10 16.5,-10"/>
<text text-anchor="start" x="40.129" y="-15.4" font-family="sans-serif" font-size="14.00" fill="#000000"> &#160;Declarations</text>
<polygon fill="#8dd3c7" stroke="transparent" points="129.5,-10 129.5,-30 149.5,-30 149.5,-10 129.5,-10"/>
<text text-anchor="start" x="153.2251" y="-15.4" font-family="sans-serif" font-size="14.00" fill="#000000"> &#160;Module</text>
<polygon fill="#80b1d3" stroke="transparent" points="215.5,-10 215.5,-30 235.5,-30 235.5,-10 215.5,-10"/>
<text text-anchor="start" x="239.2812" y="-15.4" font-family="sans-serif" font-size="14.00" fill="#000000"> &#160;Bootstrap</text>
<polygon fill="#fdb462" stroke="transparent" points="312.5,-10 312.5,-30 332.5,-30 332.5,-10 312.5,-10"/>
<text text-anchor="start" x="336.1732" y="-15.4" font-family="sans-serif" font-size="14.00" fill="#000000"> &#160;Providers</text>
<polygon fill="#fb8072" stroke="transparent" points="408.5,-10 408.5,-30 428.5,-30 428.5,-10 408.5,-10"/>
<text text-anchor="start" x="432.2258" y="-15.4" font-family="sans-serif" font-size="14.00" fill="#000000"> &#160;Exports</text>
<g id="clust1" class="cluster">
<title>cluster_AppModule</title>
<polygon fill="none" stroke="#000000" stroke-dasharray="1,5" points="8,-70 8,-195 493,-195 493,-70 8,-70"/>
</g>
<g id="clust3" class="cluster">
<title>cluster_AppModule_imports</title>
<polygon fill="none" stroke="#000000" points="343,-78 343,-130 485,-130 485,-78 343,-78"/>
</g>
<g id="clust6" class="cluster">
<title>cluster_AppModule_providers</title>
<polygon fill="none" stroke="#000000" points="16,-78 16,-130 335,-130 335,-78 16,-78"/>
</g>
<!-- TransactionModule -->
<g id="node1" class="node">
<title>TransactionModule</title>
<polygon fill="#8dd3c7" stroke="#000000" points="476.6331,-122 473.6331,-126 452.6331,-126 449.6331,-122 351.3669,-122 351.3669,-86 476.6331,-86 476.6331,-122"/>
<text text-anchor="middle" x="414" y="-99.8" font-family="Times,serif" font-size="14.00" fill="#000000">TransactionModule</text>
</g>
<!-- AppModule -->
<g id="node2" class="node">
<title>AppModule</title>
<polygon fill="#8dd3c7" stroke="#000000" points="311.6571,-187 308.6571,-191 287.6571,-191 284.6571,-187 228.3429,-187 228.3429,-151 311.6571,-151 311.6571,-187"/>
<text text-anchor="middle" x="270" y="-164.8" font-family="Times,serif" font-size="14.00" fill="#000000">AppModule</text>
</g>
<!-- TransactionModule&#45;&gt;AppModule -->
<g id="edge1" class="edge">
<title>TransactionModule&#45;&gt;AppModule</title>
<path fill="none" stroke="#000000" d="M414,-122.1061C414,-141.3391 414,-169 414,-169 414,-169 322.0379,-169 322.0379,-169"/>
<polygon fill="#000000" stroke="#000000" points="322.0379,-165.5001 312.0379,-169 322.0378,-172.5001 322.0379,-165.5001"/>
</g>
<!-- AppService -->
<g id="node3" class="node">
<title>AppService</title>
<ellipse fill="#fdb462" stroke="#000000" cx="270" cy="-104" rx="56.7406" ry="18"/>
<text text-anchor="middle" x="270" y="-99.8" font-family="Times,serif" font-size="14.00" fill="#000000">AppService</text>
</g>
<!-- AppService&#45;&gt;AppModule -->
<g id="edge2" class="edge">
<title>AppService&#45;&gt;AppModule</title>
<path fill="none" stroke="#000000" d="M270,-122.1061C270,-122.1061 270,-140.991 270,-140.991"/>
<polygon fill="#000000" stroke="#000000" points="266.5001,-140.9909 270,-150.991 273.5001,-140.991 266.5001,-140.9909"/>
</g>
<!-- TransactionService -->
<g id="node4" class="node">
<title>TransactionService</title>
<ellipse fill="#fdb462" stroke="#000000" cx="110" cy="-104" rx="85.6493" ry="18"/>
<text text-anchor="middle" x="110" y="-99.8" font-family="Times,serif" font-size="14.00" fill="#000000">TransactionService</text>
</g>
<!-- TransactionService&#45;&gt;AppModule -->
<g id="edge3" class="edge">
<title>TransactionService&#45;&gt;AppModule</title>
<path fill="none" stroke="#000000" d="M110,-122.1061C110,-141.3391 110,-169 110,-169 110,-169 217.9619,-169 217.9619,-169"/>
<polygon fill="#000000" stroke="#000000" points="217.9619,-172.5001 227.9619,-169 217.9618,-165.5001 217.9619,-172.5001"/>
</g>
</g>
</svg>
