<?xml version="1.0" encoding="UTF-8" standalone="no"?>
<!DOCTYPE svg PUBLIC "-//W3C//DTD SVG 1.1//EN"
 "http://www.w3.org/Graphics/SVG/1.1/DTD/svg11.dtd">
<!-- Generated by graphviz version 2.40.1 (20161225.0304)
 -->
<!-- Title: dependencies Pages: 1 -->
<svg width="983pt" height="211pt"
 viewBox="0.00 0.00 983.00 211.00" xmlns="http://www.w3.org/2000/svg" xmlns:xlink="http://www.w3.org/1999/xlink">
<g id="graph0" class="graph" transform="scale(1 1) rotate(0) translate(4 207)">
<title>dependencies</title>
<polygon fill="#ffffff" stroke="transparent" points="-4,4 -4,-207 979,-207 979,4 -4,4"/>
<text text-anchor="start" x="466.5091" y="-42.4" font-family="sans-serif" font-weight="bold" font-size="14.00" fill="#000000">Legend</text>
<polygon fill="#ffffb3" stroke="transparent" points="253.5,-10 253.5,-30 273.5,-30 273.5,-10 253.5,-10"/>
<text text-anchor="start" x="277.129" y="-15.4" font-family="sans-serif" font-size="14.00" fill="#000000"> &#160;Declarations</text>
<polygon fill="#8dd3c7" stroke="transparent" points="366.5,-10 366.5,-30 386.5,-30 386.5,-10 366.5,-10"/>
<text text-anchor="start" x="390.2251" y="-15.4" font-family="sans-serif" font-size="14.00" fill="#000000"> &#160;Module</text>
<polygon fill="#80b1d3" stroke="transparent" points="452.5,-10 452.5,-30 472.5,-30 472.5,-10 452.5,-10"/>
<text text-anchor="start" x="476.2812" y="-15.4" font-family="sans-serif" font-size="14.00" fill="#000000"> &#160;Bootstrap</text>
<polygon fill="#fdb462" stroke="transparent" points="549.5,-10 549.5,-30 569.5,-30 569.5,-10 549.5,-10"/>
<text text-anchor="start" x="573.1732" y="-15.4" font-family="sans-serif" font-size="14.00" fill="#000000"> &#160;Providers</text>
<polygon fill="#fb8072" stroke="transparent" points="645.5,-10 645.5,-30 665.5,-30 665.5,-10 645.5,-10"/>
<text text-anchor="start" x="669.2258" y="-15.4" font-family="sans-serif" font-size="14.00" fill="#000000"> &#160;Exports</text>
<g id="clust1" class="cluster">
<title>cluster_AppModule</title>
<polygon fill="none" stroke="#000000" stroke-dasharray="1,5" points="8,-70 8,-195 967,-195 967,-70 8,-70"/>
</g>
<g id="clust3" class="cluster">
<title>cluster_AppModule_imports</title>
<polygon fill="none" stroke="#000000" points="343,-78 343,-130 959,-130 959,-78 343,-78"/>
</g>
<g id="clust6" class="cluster">
<title>cluster_AppModule_providers</title>
<polygon fill="none" stroke="#000000" points="16,-78 16,-130 335,-130 335,-78 16,-78"/>
</g>
<!-- CommerceModule -->
<g id="node1" class="node">
<title>CommerceModule</title>
<polygon fill="#8dd3c7" stroke="#000000" points="951.472,-122 948.472,-126 927.472,-126 924.472,-122 830.528,-122 830.528,-86 951.472,-86 951.472,-122"/>
<text text-anchor="middle" x="891" y="-99.8" font-family="Times,serif" font-size="14.00" fill="#000000">CommerceModule</text>
</g>
<!-- AppModule -->
<g id="node6" class="node">
<title>AppModule</title>
<polygon fill="#8dd3c7" stroke="#000000" points="559.6571,-187 556.6571,-191 535.6571,-191 532.6571,-187 476.3429,-187 476.3429,-151 559.6571,-151 559.6571,-187"/>
<text text-anchor="middle" x="518" y="-164.8" font-family="Times,serif" font-size="14.00" fill="#000000">AppModule</text>
</g>
<!-- CommerceModule&#45;&gt;AppModule -->
<g id="edge1" class="edge">
<title>CommerceModule&#45;&gt;AppModule</title>
<path fill="none" stroke="#000000" d="M891,-122.2921C891,-144.2057 891,-178 891,-178 891,-178 569.7021,-178 569.7021,-178"/>
<polygon fill="#000000" stroke="#000000" points="569.7021,-174.5001 559.7021,-178 569.7021,-181.5001 569.7021,-174.5001"/>
</g>
<!-- OrderModule -->
<g id="node2" class="node">
<title>OrderModule</title>
<polygon fill="#8dd3c7" stroke="#000000" points="812.1924,-122 809.1924,-126 788.1924,-126 785.1924,-122 719.8076,-122 719.8076,-86 812.1924,-86 812.1924,-122"/>
<text text-anchor="middle" x="766" y="-99.8" font-family="Times,serif" font-size="14.00" fill="#000000">OrderModule</text>
</g>
<!-- OrderModule&#45;&gt;AppModule -->
<g id="edge2" class="edge">
<title>OrderModule&#45;&gt;AppModule</title>
<path fill="none" stroke="#000000" d="M766,-122.1061C766,-141.3391 766,-169 766,-169 766,-169 569.7894,-169 569.7894,-169"/>
<polygon fill="#000000" stroke="#000000" points="569.7894,-165.5001 559.7894,-169 569.7893,-172.5001 569.7894,-165.5001"/>
</g>
<!-- ProductModule -->
<g id="node3" class="node">
<title>ProductModule</title>
<polygon fill="#8dd3c7" stroke="#000000" points="701.5982,-122 698.5982,-126 677.5982,-126 674.5982,-122 598.4018,-122 598.4018,-86 701.5982,-86 701.5982,-122"/>
<text text-anchor="middle" x="650" y="-99.8" font-family="Times,serif" font-size="14.00" fill="#000000">ProductModule</text>
</g>
<!-- ProductModule&#45;&gt;AppModule -->
<g id="edge3" class="edge">
<title>ProductModule&#45;&gt;AppModule</title>
<path fill="none" stroke="#000000" d="M650,-122.027C650,-138.3976 650,-160 650,-160 650,-160 569.7656,-160 569.7656,-160"/>
<polygon fill="#000000" stroke="#000000" points="569.7657,-156.5001 559.7656,-160 569.7656,-163.5001 569.7657,-156.5001"/>
</g>
<!-- TransactionModule -->
<g id="node4" class="node">
<title>TransactionModule</title>
<polygon fill="#8dd3c7" stroke="#000000" points="580.6331,-122 577.6331,-126 556.6331,-126 553.6331,-122 455.3669,-122 455.3669,-86 580.6331,-86 580.6331,-122"/>
<text text-anchor="middle" x="518" y="-99.8" font-family="Times,serif" font-size="14.00" fill="#000000">TransactionModule</text>
</g>
<!-- TransactionModule&#45;&gt;AppModule -->
<g id="edge4" class="edge">
<title>TransactionModule&#45;&gt;AppModule</title>
<path fill="none" stroke="#000000" d="M518,-122.1061C518,-122.1061 518,-140.991 518,-140.991"/>
<polygon fill="#000000" stroke="#000000" points="514.5001,-140.9909 518,-150.991 521.5001,-140.991 514.5001,-140.9909"/>
</g>
<!-- UserModule -->
<g id="node5" class="node">
<title>UserModule</title>
<polygon fill="#8dd3c7" stroke="#000000" points="436.9762,-122 433.9762,-126 412.9762,-126 409.9762,-122 351.0238,-122 351.0238,-86 436.9762,-86 436.9762,-122"/>
<text text-anchor="middle" x="394" y="-99.8" font-family="Times,serif" font-size="14.00" fill="#000000">UserModule</text>
</g>
<!-- UserModule&#45;&gt;AppModule -->
<g id="edge5" class="edge">
<title>UserModule&#45;&gt;AppModule</title>
<path fill="none" stroke="#000000" d="M394,-122.027C394,-138.3976 394,-160 394,-160 394,-160 466.0193,-160 466.0193,-160"/>
<polygon fill="#000000" stroke="#000000" points="466.0193,-163.5001 476.0193,-160 466.0192,-156.5001 466.0193,-163.5001"/>
</g>
<!-- AppService -->
<g id="node7" class="node">
<title>AppService</title>
<ellipse fill="#fdb462" stroke="#000000" cx="270" cy="-104" rx="56.7406" ry="18"/>
<text text-anchor="middle" x="270" y="-99.8" font-family="Times,serif" font-size="14.00" fill="#000000">AppService</text>
</g>
<!-- AppService&#45;&gt;AppModule -->
<g id="edge6" class="edge">
<title>AppService&#45;&gt;AppModule</title>
<path fill="none" stroke="#000000" d="M270,-122.1061C270,-141.3391 270,-169 270,-169 270,-169 466.2106,-169 466.2106,-169"/>
<polygon fill="#000000" stroke="#000000" points="466.2107,-172.5001 476.2106,-169 466.2106,-165.5001 466.2107,-172.5001"/>
</g>
<!-- TransactionService -->
<g id="node8" class="node">
<title>TransactionService</title>
<ellipse fill="#fdb462" stroke="#000000" cx="110" cy="-104" rx="85.6493" ry="18"/>
<text text-anchor="middle" x="110" y="-99.8" font-family="Times,serif" font-size="14.00" fill="#000000">TransactionService</text>
</g>
<!-- TransactionService&#45;&gt;AppModule -->
<g id="edge7" class="edge">
<title>TransactionService&#45;&gt;AppModule</title>
<path fill="none" stroke="#000000" d="M110,-122.2921C110,-144.2057 110,-178 110,-178 110,-178 466.2542,-178 466.2542,-178"/>
<polygon fill="#000000" stroke="#000000" points="466.2543,-181.5001 476.2542,-178 466.2542,-174.5001 466.2543,-181.5001"/>
</g>
</g>
</svg>
