<?xml version="1.0" encoding="UTF-8" standalone="no"?>
<!DOCTYPE svg PUBLIC "-//W3C//DTD SVG 1.1//EN"
 "http://www.w3.org/Graphics/SVG/1.1/DTD/svg11.dtd">
<!-- Generated by graphviz version 2.40.1 (20161225.0304)
 -->
<!-- Title: dependencies Pages: 1 -->
<svg width="504pt" height="276pt"
 viewBox="0.00 0.00 504.00 276.00" xmlns="http://www.w3.org/2000/svg" xmlns:xlink="http://www.w3.org/1999/xlink">
<g id="graph0" class="graph" transform="scale(1 1) rotate(0) translate(4 272)">
<title>dependencies</title>
<polygon fill="#ffffff" stroke="transparent" points="-4,4 -4,-272 500,-272 500,4 -4,4"/>
<text text-anchor="start" x="227.0091" y="-42.4" font-family="sans-serif" font-weight="bold" font-size="14.00" fill="#000000">Legend</text>
<polygon fill="#ffffb3" stroke="transparent" points="14,-10 14,-30 34,-30 34,-10 14,-10"/>
<text text-anchor="start" x="37.629" y="-15.4" font-family="sans-serif" font-size="14.00" fill="#000000"> &#160;Declarations</text>
<polygon fill="#8dd3c7" stroke="transparent" points="127,-10 127,-30 147,-30 147,-10 127,-10"/>
<text text-anchor="start" x="150.7251" y="-15.4" font-family="sans-serif" font-size="14.00" fill="#000000"> &#160;Module</text>
<polygon fill="#80b1d3" stroke="transparent" points="213,-10 213,-30 233,-30 233,-10 213,-10"/>
<text text-anchor="start" x="236.7812" y="-15.4" font-family="sans-serif" font-size="14.00" fill="#000000"> &#160;Bootstrap</text>
<polygon fill="#fdb462" stroke="transparent" points="310,-10 310,-30 330,-30 330,-10 310,-10"/>
<text text-anchor="start" x="333.6732" y="-15.4" font-family="sans-serif" font-size="14.00" fill="#000000"> &#160;Providers</text>
<polygon fill="#fb8072" stroke="transparent" points="406,-10 406,-30 426,-30 426,-10 406,-10"/>
<text text-anchor="start" x="429.7258" y="-15.4" font-family="sans-serif" font-size="14.00" fill="#000000"> &#160;Exports</text>
<g id="clust1" class="cluster">
<title>cluster_AppModule</title>
<polygon fill="none" stroke="#000000" stroke-dasharray="1,5" points="80.5,-70 80.5,-260 415.5,-260 415.5,-70 80.5,-70"/>
</g>
<g id="clust3" class="cluster">
<title>cluster_AppModule_imports</title>
<polygon fill="none" stroke="#000000" points="164.5,-143 164.5,-195 306.5,-195 306.5,-143 164.5,-143"/>
</g>
<g id="clust6" class="cluster">
<title>cluster_AppModule_providers</title>
<polygon fill="none" stroke="#000000" points="88.5,-78 88.5,-130 407.5,-130 407.5,-78 88.5,-78"/>
</g>
<!-- TransactionModule -->
<g id="node1" class="node">
<title>TransactionModule</title>
<polygon fill="#8dd3c7" stroke="#000000" points="298.1331,-187 295.1331,-191 274.1331,-191 271.1331,-187 172.8669,-187 172.8669,-151 298.1331,-151 298.1331,-187"/>
<text text-anchor="middle" x="235.5" y="-164.8" font-family="Times,serif" font-size="14.00" fill="#000000">TransactionModule</text>
</g>
<!-- AppModule -->
<g id="node2" class="node">
<title>AppModule</title>
<polygon fill="#8dd3c7" stroke="#000000" points="277.1571,-252 274.1571,-256 253.1571,-256 250.1571,-252 193.8429,-252 193.8429,-216 277.1571,-216 277.1571,-252"/>
<text text-anchor="middle" x="235.5" y="-229.8" font-family="Times,serif" font-size="14.00" fill="#000000">AppModule</text>
</g>
<!-- TransactionModule&#45;&gt;AppModule -->
<g id="edge1" class="edge">
<title>TransactionModule&#45;&gt;AppModule</title>
<path fill="none" stroke="#000000" d="M235.5,-187.1061C235.5,-187.1061 235.5,-205.991 235.5,-205.991"/>
<polygon fill="#000000" stroke="#000000" points="232.0001,-205.9909 235.5,-215.991 239.0001,-205.991 232.0001,-205.9909"/>
</g>
<!-- AppService -->
<g id="node3" class="node">
<title>AppService</title>
<ellipse fill="#fdb462" stroke="#000000" cx="153.5" cy="-104" rx="56.7406" ry="18"/>
<text text-anchor="middle" x="153.5" y="-99.8" font-family="Times,serif" font-size="14.00" fill="#000000">AppService</text>
</g>
<!-- AppService&#45;&gt;AppModule -->
<g id="edge2" class="edge">
<title>AppService&#45;&gt;AppModule</title>
<path fill="none" stroke="#000000" d="M134.7818,-120.9952C134.7818,-156.2333 134.7818,-234 134.7818,-234 134.7818,-234 183.6614,-234 183.6614,-234"/>
<polygon fill="#000000" stroke="#000000" points="183.6614,-237.5001 193.6614,-234 183.6614,-230.5001 183.6614,-237.5001"/>
</g>
<!-- TransactionService -->
<g id="node4" class="node">
<title>TransactionService</title>
<ellipse fill="#fdb462" stroke="#000000" cx="313.5" cy="-104" rx="85.6493" ry="18"/>
<text text-anchor="middle" x="313.5" y="-99.8" font-family="Times,serif" font-size="14.00" fill="#000000">TransactionService</text>
</g>
<!-- TransactionService&#45;&gt;TransactionModule -->
<g id="edge4" class="edge">
<title>TransactionService&#45;&gt;TransactionModule</title>
<path fill="none" stroke="#000000" d="M263.1208,-118.7495C263.1208,-118.7495 263.1208,-140.5882 263.1208,-140.5882"/>
<polygon fill="#000000" stroke="#000000" points="259.6209,-140.5881 263.1208,-150.5882 266.6209,-140.5882 259.6209,-140.5881"/>
</g>
<!-- TransactionService&#45;&gt;AppModule -->
<g id="edge3" class="edge">
<title>TransactionService&#45;&gt;AppModule</title>
<path fill="none" stroke="#000000" d="M348.6955,-120.4646C348.6955,-155.4458 348.6955,-234 348.6955,-234 348.6955,-234 287.3282,-234 287.3282,-234"/>
<polygon fill="#000000" stroke="#000000" points="287.3282,-230.5001 277.3282,-234 287.3282,-237.5001 287.3282,-230.5001"/>
</g>
</g>
</svg>
