<?xml version="1.0" encoding="UTF-8" standalone="no"?>
<!DOCTYPE svg PUBLIC "-//W3C//DTD SVG 1.1//EN"
 "http://www.w3.org/Graphics/SVG/1.1/DTD/svg11.dtd">
<!-- Generated by graphviz version 2.40.1 (20161225.0304)
 -->
<!-- Title: dependencies Pages: 1 -->
<svg width="1395pt" height="279pt"
 viewBox="0.00 0.00 1395.00 279.00" xmlns="http://www.w3.org/2000/svg" xmlns:xlink="http://www.w3.org/1999/xlink">
<g id="graph0" class="graph" transform="scale(1 1) rotate(0) translate(4 275)">
<title>dependencies</title>
<polygon fill="#ffffff" stroke="transparent" points="-4,4 -4,-275 1391,-275 1391,4 -4,4"/>
<text text-anchor="start" x="672.5091" y="-42.4" font-family="sans-serif" font-weight="bold" font-size="14.00" fill="#000000">Legend</text>
<polygon fill="#ffffb3" stroke="transparent" points="459.5,-10 459.5,-30 479.5,-30 479.5,-10 459.5,-10"/>
<text text-anchor="start" x="483.129" y="-15.4" font-family="sans-serif" font-size="14.00" fill="#000000"> &#160;Declarations</text>
<polygon fill="#8dd3c7" stroke="transparent" points="572.5,-10 572.5,-30 592.5,-30 592.5,-10 572.5,-10"/>
<text text-anchor="start" x="596.2251" y="-15.4" font-family="sans-serif" font-size="14.00" fill="#000000"> &#160;Module</text>
<polygon fill="#80b1d3" stroke="transparent" points="658.5,-10 658.5,-30 678.5,-30 678.5,-10 658.5,-10"/>
<text text-anchor="start" x="682.2812" y="-15.4" font-family="sans-serif" font-size="14.00" fill="#000000"> &#160;Bootstrap</text>
<polygon fill="#fdb462" stroke="transparent" points="755.5,-10 755.5,-30 775.5,-30 775.5,-10 755.5,-10"/>
<text text-anchor="start" x="779.1732" y="-15.4" font-family="sans-serif" font-size="14.00" fill="#000000"> &#160;Providers</text>
<polygon fill="#fb8072" stroke="transparent" points="851.5,-10 851.5,-30 871.5,-30 871.5,-10 851.5,-10"/>
<text text-anchor="start" x="875.2258" y="-15.4" font-family="sans-serif" font-size="14.00" fill="#000000"> &#160;Exports</text>
<g id="clust1" class="cluster">
<title>cluster_AppModule</title>
<polygon fill="none" stroke="#000000" stroke-dasharray="1,5" points="8,-70 8,-263 673,-263 673,-70 8,-70"/>
</g>
<g id="clust3" class="cluster">
<title>cluster_AppModule_imports</title>
<polygon fill="none" stroke="#000000" points="48,-146 48,-198 665,-198 665,-146 48,-146"/>
</g>
<g id="clust6" class="cluster">
<title>cluster_AppModule_providers</title>
<polygon fill="none" stroke="#000000" points="16,-78 16,-130 335,-130 335,-78 16,-78"/>
</g>
<g id="clust7" class="cluster">
<title>cluster_CommerceModule</title>
<polygon fill="none" stroke="#000000" stroke-dasharray="1,5" points="681,-70 681,-138 877,-138 877,-70 681,-70"/>
</g>
<g id="clust12" class="cluster">
<title>cluster_CommerceModule_providers</title>
<polygon fill="none" stroke="#000000" points="689,-78 689,-130 869,-130 869,-78 689,-78"/>
</g>
<g id="clust13" class="cluster">
<title>cluster_OrderModule</title>
<polygon fill="none" stroke="#000000" stroke-dasharray="1,5" points="885,-70 885,-138 1043,-138 1043,-70 885,-70"/>
</g>
<g id="clust18" class="cluster">
<title>cluster_OrderModule_providers</title>
<polygon fill="none" stroke="#000000" points="893,-78 893,-130 1035,-130 1035,-78 893,-78"/>
</g>
<g id="clust19" class="cluster">
<title>cluster_ProductModule</title>
<polygon fill="none" stroke="#000000" stroke-dasharray="1,5" points="1051,-70 1051,-138 1223,-138 1223,-70 1051,-70"/>
</g>
<g id="clust24" class="cluster">
<title>cluster_ProductModule_providers</title>
<polygon fill="none" stroke="#000000" points="1059,-78 1059,-130 1215,-130 1215,-78 1059,-78"/>
</g>
<g id="clust31" class="cluster">
<title>cluster_UserModule</title>
<polygon fill="none" stroke="#000000" stroke-dasharray="1,5" points="1231,-70 1231,-138 1379,-138 1379,-70 1231,-70"/>
</g>
<g id="clust36" class="cluster">
<title>cluster_UserModule_providers</title>
<polygon fill="none" stroke="#000000" points="1239,-78 1239,-130 1371,-130 1371,-78 1239,-78"/>
</g>
<!-- CommerceModule -->
<g id="node1" class="node">
<title>CommerceModule</title>
<polygon fill="#8dd3c7" stroke="#000000" points="320.472,-190 317.472,-194 296.472,-194 293.472,-190 199.528,-190 199.528,-154 320.472,-154 320.472,-190"/>
<text text-anchor="middle" x="260" y="-167.8" font-family="Times,serif" font-size="14.00" fill="#000000">CommerceModule</text>
</g>
<!-- AppModule -->
<g id="node6" class="node">
<title>AppModule</title>
<polygon fill="#8dd3c7" stroke="#000000" points="301.6571,-255 298.6571,-259 277.6571,-259 274.6571,-255 218.3429,-255 218.3429,-219 301.6571,-219 301.6571,-255"/>
<text text-anchor="middle" x="260" y="-232.8" font-family="Times,serif" font-size="14.00" fill="#000000">AppModule</text>
</g>
<!-- CommerceModule&#45;&gt;AppModule -->
<g id="edge1" class="edge">
<title>CommerceModule&#45;&gt;AppModule</title>
<path fill="none" stroke="#000000" d="M260,-190.1061C260,-190.1061 260,-208.991 260,-208.991"/>
<polygon fill="#000000" stroke="#000000" points="256.5001,-208.9909 260,-218.991 263.5001,-208.991 256.5001,-208.9909"/>
</g>
<!-- OrderModule -->
<g id="node2" class="node">
<title>OrderModule</title>
<polygon fill="#8dd3c7" stroke="#000000" points="431.1924,-190 428.1924,-194 407.1924,-194 404.1924,-190 338.8076,-190 338.8076,-154 431.1924,-154 431.1924,-190"/>
<text text-anchor="middle" x="385" y="-167.8" font-family="Times,serif" font-size="14.00" fill="#000000">OrderModule</text>
</g>
<!-- OrderModule&#45;&gt;AppModule -->
<g id="edge2" class="edge">
<title>OrderModule&#45;&gt;AppModule</title>
<path fill="none" stroke="#000000" d="M385,-190.027C385,-206.3976 385,-228 385,-228 385,-228 311.9709,-228 311.9709,-228"/>
<polygon fill="#000000" stroke="#000000" points="311.971,-224.5001 301.9709,-228 311.9709,-231.5001 311.971,-224.5001"/>
</g>
<!-- ProductModule -->
<g id="node3" class="node">
<title>ProductModule</title>
<polygon fill="#8dd3c7" stroke="#000000" points="552.5982,-190 549.5982,-194 528.5982,-194 525.5982,-190 449.4018,-190 449.4018,-154 552.5982,-154 552.5982,-190"/>
<text text-anchor="middle" x="501" y="-167.8" font-family="Times,serif" font-size="14.00" fill="#000000">ProductModule</text>
</g>
<!-- ProductModule&#45;&gt;AppModule -->
<g id="edge3" class="edge">
<title>ProductModule&#45;&gt;AppModule</title>
<path fill="none" stroke="#000000" d="M501,-190.1061C501,-209.3391 501,-237 501,-237 501,-237 311.7039,-237 311.7039,-237"/>
<polygon fill="#000000" stroke="#000000" points="311.7039,-233.5001 301.7039,-237 311.7038,-240.5001 311.7039,-233.5001"/>
</g>
<!-- TransactionModule -->
<g id="node4" class="node">
<title>TransactionModule</title>
<polygon fill="#8dd3c7" stroke="#000000" points="181.6331,-190 178.6331,-194 157.6331,-194 154.6331,-190 56.3669,-190 56.3669,-154 181.6331,-154 181.6331,-190"/>
<text text-anchor="middle" x="119" y="-167.8" font-family="Times,serif" font-size="14.00" fill="#000000">TransactionModule</text>
</g>
<!-- TransactionModule&#45;&gt;AppModule -->
<g id="edge4" class="edge">
<title>TransactionModule&#45;&gt;AppModule</title>
<path fill="none" stroke="#000000" d="M119,-190.1061C119,-209.3391 119,-237 119,-237 119,-237 208.0771,-237 208.0771,-237"/>
<polygon fill="#000000" stroke="#000000" points="208.0771,-240.5001 218.0771,-237 208.0771,-233.5001 208.0771,-240.5001"/>
</g>
<!-- UserModule -->
<g id="node5" class="node">
<title>UserModule</title>
<polygon fill="#8dd3c7" stroke="#000000" points="656.9762,-190 653.9762,-194 632.9762,-194 629.9762,-190 571.0238,-190 571.0238,-154 656.9762,-154 656.9762,-190"/>
<text text-anchor="middle" x="614" y="-167.8" font-family="Times,serif" font-size="14.00" fill="#000000">UserModule</text>
</g>
<!-- UserModule&#45;&gt;AppModule -->
<g id="edge5" class="edge">
<title>UserModule&#45;&gt;AppModule</title>
<path fill="none" stroke="#000000" d="M614,-190.2921C614,-212.2057 614,-246 614,-246 614,-246 311.9986,-246 311.9986,-246"/>
<polygon fill="#000000" stroke="#000000" points="311.9986,-242.5001 301.9986,-246 311.9985,-249.5001 311.9986,-242.5001"/>
</g>
<!-- AppService -->
<g id="node7" class="node">
<title>AppService</title>
<ellipse fill="#fdb462" stroke="#000000" cx="81" cy="-104" rx="56.7406" ry="18"/>
<text text-anchor="middle" x="81" y="-99.8" font-family="Times,serif" font-size="14.00" fill="#000000">AppService</text>
</g>
<!-- AppService&#45;&gt;AppModule -->
<g id="edge6" class="edge">
<title>AppService&#45;&gt;AppModule</title>
<path fill="none" stroke="#000000" d="M40.2818,-116.6016C40.2818,-151.3543 40.2818,-246 40.2818,-246 40.2818,-246 208.1555,-246 208.1555,-246"/>
<polygon fill="#000000" stroke="#000000" points="208.1555,-249.5001 218.1555,-246 208.1555,-242.5001 208.1555,-249.5001"/>
</g>
<!-- TransactionService -->
<g id="node8" class="node">
<title>TransactionService</title>
<ellipse fill="#fdb462" stroke="#000000" cx="241" cy="-104" rx="85.6493" ry="18"/>
<text text-anchor="middle" x="241" y="-99.8" font-family="Times,serif" font-size="14.00" fill="#000000">TransactionService</text>
</g>
<!-- TransactionService&#45;&gt;TransactionModule -->
<g id="edge11" class="edge">
<title>TransactionService&#45;&gt;TransactionModule</title>
<path fill="none" stroke="#000000" d="M168.6208,-113.7427C168.6208,-113.7427 168.6208,-143.8359 168.6208,-143.8359"/>
<polygon fill="#000000" stroke="#000000" points="165.1209,-143.8358 168.6208,-153.8359 172.1209,-143.8359 165.1209,-143.8358"/>
</g>
<!-- TransactionService&#45;&gt;AppModule -->
<g id="edge7" class="edge">
<title>TransactionService&#45;&gt;AppModule</title>
<path fill="none" stroke="#000000" d="M190.6652,-118.7114C190.6652,-151.5577 190.6652,-228 190.6652,-228 190.6652,-228 208.0681,-228 208.0681,-228"/>
<polygon fill="#000000" stroke="#000000" points="208.0682,-231.5001 218.0681,-228 208.0681,-224.5001 208.0682,-231.5001"/>
</g>
<!-- CommerceService -->
<g id="node9" class="node">
<title>CommerceService</title>
<ellipse fill="#fdb462" stroke="#000000" cx="779" cy="-104" rx="82.2198" ry="18"/>
<text text-anchor="middle" x="779" y="-99.8" font-family="Times,serif" font-size="14.00" fill="#000000">CommerceService</text>
</g>
<!-- CommerceService&#45;&gt;CommerceModule -->
<g id="edge8" class="edge">
<title>CommerceService&#45;&gt;CommerceModule</title>
<path fill="none" stroke="#000000" d="M696.6288,-104C567.6844,-104 332.7393,-104 332.7393,-104 332.7393,-104 332.7393,-172 332.7393,-172 332.7393,-172 330.7278,-172 330.7278,-172"/>
<polygon fill="#000000" stroke="#000000" points="330.7279,-168.5001 320.7278,-172 330.7278,-175.5001 330.7279,-168.5001"/>
</g>
<!-- OrderService -->
<g id="node10" class="node">
<title>OrderService</title>
<ellipse fill="#fdb462" stroke="#000000" cx="964" cy="-104" rx="62.516" ry="18"/>
<text text-anchor="middle" x="964" y="-99.8" font-family="Times,serif" font-size="14.00" fill="#000000">OrderService</text>
</g>
<!-- OrderService&#45;&gt;OrderModule -->
<g id="edge9" class="edge">
<title>OrderService&#45;&gt;OrderModule</title>
<path fill="none" stroke="#000000" d="M964,-122.2015C964,-128.028 964,-133 964,-133 964,-133 385,-133 385,-133 385,-133 385,-143.8701 385,-143.8701"/>
<polygon fill="#000000" stroke="#000000" points="381.5001,-143.8701 385,-153.8701 388.5001,-143.8701 381.5001,-143.8701"/>
</g>
<!-- ProductService -->
<g id="node11" class="node">
<title>ProductService</title>
<ellipse fill="#fdb462" stroke="#000000" cx="1137" cy="-104" rx="70.0616" ry="18"/>
<text text-anchor="middle" x="1137" y="-99.8" font-family="Times,serif" font-size="14.00" fill="#000000">ProductService</text>
</g>
<!-- ProductService&#45;&gt;ProductModule -->
<g id="edge10" class="edge">
<title>ProductService&#45;&gt;ProductModule</title>
<path fill="none" stroke="#000000" d="M1137,-122.1274C1137,-132.7109 1137,-144 1137,-144 1137,-144 501,-144 501,-144 501,-144 501,-144.9793 501,-144.9793"/>
<polygon fill="#000000" stroke="#000000" points="497.5001,-143.793 501,-153.793 504.5001,-143.7931 497.5001,-143.793"/>
</g>
<!-- UserService -->
<g id="node12" class="node">
<title>UserService</title>
<ellipse fill="#fdb462" stroke="#000000" cx="1305" cy="-104" rx="58.4415" ry="18"/>
<text text-anchor="middle" x="1305" y="-99.8" font-family="Times,serif" font-size="14.00" fill="#000000">UserService</text>
</g>
<!-- UserService&#45;&gt;UserModule -->
<g id="edge12" class="edge">
<title>UserService&#45;&gt;UserModule</title>
<path fill="none" stroke="#000000" d="M1305,-122.2228C1305,-142.3652 1305,-172 1305,-172 1305,-172 667.2251,-172 667.2251,-172"/>
<polygon fill="#000000" stroke="#000000" points="667.2252,-168.5001 657.2251,-172 667.2251,-175.5001 667.2252,-168.5001"/>
</g>
</g>
</svg>
